<?xml version="1.0" encoding="iso-8859-1"?>
<!-- Generator: Adobe Illustrator 19.0.0, SVG Export Plug-In . SVG Version: 6.00 Build 0)  -->
<svg version="1.1" id="Layer_1" xmlns="http://www.w3.org/2000/svg" xmlns:xlink="http://www.w3.org/1999/xlink" x="0px" y="0px"
	 viewBox="0 0 512 512" style="enable-background:new 0 0 512 512;" xml:space="preserve">
<g>
	<g>
		<g>
			<path d="M350.391,5.364c-80.129,0-147.74,58.526-160.605,135.935H17.486C7.829,141.299,0,149.128,0,158.785
				c0,3.162,0,309.184,0,330.364c0,9.657,7.829,17.486,17.486,17.486c10.814,0,426.54,0,437.79,0
				c9.657,0,17.486-7.829,17.486-17.486V295.443C576.013,114.323,454.453,5.364,350.391,5.364z M34.973,176.272h152.876
				c1.992,35.064,15.285,70.958,31.042,102.041v28.169H34.973V176.272z M218.891,471.663H34.973V341.456h183.919V471.663z
				 M437.79,471.663H253.864V341.456h3.305c37.065,52.9,78.317,93.492,82.601,96.781c6.846,5.252,16.535,4.729,22.778-1.311
				c20.257-19.602,49.21-52.354,75.242-87.802V471.663z M350.273,399.451c-54.601-56.698-132.679-161.308-127.463-239.553
				c4.27-67.043,60.311-119.56,127.581-119.56C443.844,40.337,581.226,155.318,350.273,399.451z"/>
			<path d="M350.389,77.062c-50.248,0-91.126,40.88-91.126,91.128c-0.001,50.247,40.879,91.126,91.126,91.126
				s91.128-40.88,91.128-91.126C441.517,117.942,400.638,77.062,350.389,77.062z M350.389,224.343
				c-30.964,0-56.154-25.191-56.154-56.154c-0.001-30.964,25.19-56.155,56.154-56.155c30.963,0,56.155,25.191,56.155,56.155
				S381.353,224.343,350.389,224.343z"/>
		</g>
	</g>
</g>
<g>
</g>
<g>
</g>
<g>
</g>
<g>
</g>
<g>
</g>
<g>
</g>
<g>
</g>
<g>
</g>
<g>
</g>
<g>
</g>
<g>
</g>
<g>
</g>
<g>
</g>
<g>
</g>
<g>
</g>
</svg>
